{"title":"Zodiac.2007.SWESUB.DVDRip.XviD-HE3","uid":6781415,"size":1436871398,"categoryP":"video","categoryS":"movies","magnet":"?xt=urn:btih:9842ce99d119f2e007ea77e005e5a90439fcaf70&amp;dn=Zodiac.2007.SWESUB.DVDRip.XviD-HE3&amp;tr=udp%3A%2F%2Ftracker.openbittorrent.com%3A80&amp;tr=udp%3A%2F%2Fopen.demonii.com%3A1337&amp;tr=udp%3A%2F%2Ftracker.coppersurfer.tk%3A6969&amp;tr=udp%3A%2F%2Fexodus.desync.com%3A6969","seeders":6,"leechers":2,"uploader":"norsktorsk","files":2,"time":1319916602,"description":"General\nComplete name                  : Zodiac.2007.SWESUB.DVDRip.XviD-HE3.avi\nFormat                         : AVI\nFormat/Info                    : Audio Video Interleave\nFile size                      : 1.34 GiB\nDuration                       : 2h 31mn\nOverall bit rate               : 1 267 Kbps\nWriting application            : VirtualDubMod 1.5.10.2 (build 2542/release)\nWriting library                : VirtualDubMod build 2542/release\n\nVideo\nID                             : 0\nFormat                         : MPEG-4 Visual\nFormat profile                 : Advanced Simple@L5\nFormat settings, BVOP          : 2\nFormat settings, QPel          : No\nFormat settings, GMC           : No warppoints\nFormat settings, Matrix        : Default (MPEG)\nMuxing mode                    : Packed bitstream\nCodec ID                       : XVID\nCodec ID/Hint                  : XviD\nDuration                       : 2h 31mn\nBit rate                       : 1 122 Kbps\nWidth                          : 704 pixels\nHeight                         : 298 pixels\nDisplay aspect ratio           : 2.35:1\nFrame rate                     : 25.000 fps\nColor space                    : YUV\nChroma subsampling             : 4:2:0\nBit depth                      : 8 bits\nScan type                      : Progressive\nCompression mode               : Lossy\nBits/(Pixel*Frame)             : 0.214\nStream size                    : 1.19 GiB (89%)\nWriting library                : XviD 62\n\nAudio\nID                             : 1\nFormat                         : MPEG Audio\nFormat version                 : Version 1\nFormat profile                 : Layer 3\nMode                           : Joint stereo\nMode extension                 : MS Stereo\nCodec ID                       : 55\nCodec ID/Hint                  : MP3\nDuration                       : 2h 31mn\nBit rate mode                  : Variable\nBit rate                       : 128 Kbps\nChannel(s)                     : 2 channels\nSampling rate                  : 48.0 KHz\nCompression mode               : Lossy\nStream size                    : 143 MiB (10%)\nAlignment                      : Aligned on interleaves\nInterleave, duration           : 24 ms (0.60 video frame)\nInterleave, preload duration   : 139 ms\nWriting library                : LAME3.90.\nEncoding settings              : -m j -V 4 -q 2 -lowpass 17.6 --abr 128\n\n","torrent":{"xt":"urn:btih:9842ce99d119f2e007ea77e005e5a90439fcaf70","amp;dn":"Zodiac.2007.SWESUB.DVDRip.XviD-HE3","amp;tr":["udp%3A%2F%2Ftracker.openbittorrent.com%3A80","udp%3A%2F%2Fopen.demonii.com%3A1337","udp%3A%2F%2Ftracker.coppersurfer.tk%3A6969","udp%3A%2F%2Fexodus.desync.com%3A6969"],"infoHash":"9842ce99d119f2e007ea77e005e5a90439fcaf70","infoHashBuffer":{"type":"Buffer","data":[152,66,206,153,209,25,242,224,7,234,119,224,5,229,169,4,57,252,175,112]},"announce":[],"urlList":[]}}